<svg width="58" height="26" viewBox="0 0 58 26" fill="none" xmlns="http://www.w3.org/2000/svg">
<rect x="12.5105" width="17.6924" height="17.6924" rx="5" transform="rotate(45 12.5105 0)" fill="white"/>
<rect x="16.4895" y="6" width="9.17767" height="9.17767" rx="4.58884" transform="rotate(45 16.4895 6)" fill="#1F2125"/>
<path d="M33.232 16L31.312 12.664H30.268V16H28.9V7.66H31.78C32.42 7.66 32.96 7.772 33.4 7.996C33.848 8.22 34.18 8.52 34.396 8.896C34.62 9.272 34.732 9.692 34.732 10.156C34.732 10.7 34.572 11.196 34.252 11.644C33.94 12.084 33.456 12.384 32.8 12.544L34.864 16H33.232ZM30.268 11.572H31.78C32.292 11.572 32.676 11.444 32.932 11.188C33.196 10.932 33.328 10.588 33.328 10.156C33.328 9.724 33.2 9.388 32.944 9.148C32.688 8.9 32.3 8.776 31.78 8.776H30.268V11.572ZM42.47 9.388V16H41.102V15.22C40.886 15.492 40.602 15.708 40.25 15.868C39.906 16.02 39.538 16.096 39.146 16.096C38.626 16.096 38.158 15.988 37.742 15.772C37.334 15.556 37.01 15.236 36.77 14.812C36.538 14.388 36.422 13.876 36.422 13.276V9.388H37.778V13.072C37.778 13.664 37.926 14.12 38.222 14.44C38.518 14.752 38.922 14.908 39.434 14.908C39.946 14.908 40.35 14.752 40.646 14.44C40.95 14.12 41.102 13.664 41.102 13.072V9.388H42.47ZM45.643 7.12V16H44.275V7.12H45.643ZM48.8071 7.12V16H47.4391V7.12H48.8071ZM50.1471 12.664C50.1471 12 50.2831 11.412 50.5551 10.9C50.8351 10.388 51.2111 9.992 51.6831 9.712C52.1631 9.424 52.6911 9.28 53.2671 9.28C53.7871 9.28 54.2391 9.384 54.6231 9.592C55.0151 9.792 55.3271 10.044 55.5591 10.348V9.388H56.9391V16H55.5591V15.016C55.3271 15.328 55.0111 15.588 54.6111 15.796C54.2111 16.004 53.7551 16.108 53.2431 16.108C52.6751 16.108 52.1551 15.964 51.6831 15.676C51.2111 15.38 50.8351 14.972 50.5551 14.452C50.2831 13.924 50.1471 13.328 50.1471 12.664ZM55.5591 12.688C55.5591 12.232 55.4631 11.836 55.2711 11.5C55.0871 11.164 54.8431 10.908 54.5391 10.732C54.2351 10.556 53.9071 10.468 53.5551 10.468C53.2031 10.468 52.8751 10.556 52.5711 10.732C52.2671 10.9 52.0191 11.152 51.8271 11.488C51.6431 11.816 51.5511 12.208 51.5511 12.664C51.5511 13.12 51.6431 13.52 51.8271 13.864C52.0191 14.208 52.2671 14.472 52.5711 14.656C52.8831 14.832 53.2111 14.92 53.5551 14.92C53.9071 14.92 54.2351 14.832 54.5391 14.656C54.8431 14.48 55.0871 14.224 55.2711 13.888C55.4631 13.544 55.5591 13.144 55.5591 12.688Z" fill="white"/>
</svg>
